<svg width="100" height="100" viewBox="0 0 100 100" fill="none" xmlns="http://www.w3.org/2000/svg">
<path d="M94.4494 79.1964H90.8315V42.1622C90.8315 39.0274 88.2809 36.4768 85.1461 36.4768H57.8465C60.0964 34.3751 61.5068 31.3856 61.5068 28.0709C61.5068 23.1122 57.4727 19.0781 52.514 19.0781C52.2384 19.0781 51.9649 19.095 51.6926 19.1198C52.6384 12.5961 58.2655 7.56792 65.0471 7.56792C65.9036 7.56792 66.5976 6.87389 66.5976 6.01736C66.5976 5.16083 65.9036 4.4668 65.0471 4.4668C56.544 4.4668 49.5177 10.8954 48.5638 19.1469C48.2073 19.1041 47.8482 19.0781 47.486 19.0781C42.5273 19.0781 38.4932 23.1122 38.4932 28.0709C38.4932 31.3854 39.9036 34.3751 42.1535 36.4768H13.8202C11.2554 36.4768 9.16854 38.5636 9.16854 41.1285C9.16854 43.0923 10.3924 44.7746 12.1171 45.4558C12.0028 45.8463 11.8322 46.1616 11.6308 46.5321C11.1787 47.364 10.6157 48.3998 10.6157 50.3153C10.6157 52.2307 11.1787 53.2665 11.6308 54.0988C12.0017 54.7811 12.2697 55.2739 12.2697 56.4013C12.2697 57.5287 12.0017 58.0215 11.6308 58.704C11.1785 59.5359 10.6157 60.5717 10.6157 62.4876C10.6157 64.4032 11.1787 65.4388 11.6308 66.2712C12.0017 66.9534 12.2697 67.4463 12.2697 68.5736C12.2697 69.7012 12.0017 70.1943 11.6308 70.8767C11.1785 71.7089 10.6157 72.7446 10.6157 74.6607C10.6157 76.5766 11.1787 77.6122 11.6308 78.4445C11.7739 78.7077 11.9012 78.943 12.0042 79.1971H5.55056C4.69403 79.1971 4 79.8911 4 80.7476C4 81.6041 4.69403 82.2982 5.55056 82.2982H6.44823L7.3426 85.4278C8.00045 87.7305 10.3916 89.5341 12.7865 89.5341H87.2135C89.6084 89.5341 91.9995 87.7303 92.6576 85.4278L93.5518 82.2982H94.4494C95.306 82.2982 96 81.6041 96 80.7476C96 79.8911 95.306 79.1964 94.4494 79.1964ZM41.5943 28.0707C41.5943 24.822 44.2373 22.179 47.486 22.179C48.1693 22.179 48.8387 22.2952 49.4763 22.5238C49.4813 22.5257 49.4867 22.5261 49.4916 22.5279C49.5658 22.5538 49.6423 22.5743 49.7213 22.5885C49.7335 22.5908 49.7459 22.5922 49.7581 22.5941C49.8363 22.6063 49.9156 22.6146 49.9971 22.6146C50.0841 22.6144 50.1637 22.6063 50.2417 22.5941C50.2541 22.592 50.2663 22.5908 50.2785 22.5885C50.3575 22.5743 50.4339 22.5536 50.5082 22.5279C50.5131 22.5263 50.5185 22.5257 50.5235 22.5238C51.1611 22.2952 51.8305 22.179 52.5138 22.179C55.7625 22.179 58.4055 24.822 58.4055 28.0707C58.4055 32.7056 54.6347 36.4764 49.9998 36.4764C45.3649 36.4764 41.5943 32.7056 41.5943 28.0707ZM13.8202 39.5777L85.1461 39.5779C86.5711 39.5779 87.7303 40.7371 87.7303 42.1622V79.1966H84.6292V44.2296C84.6292 43.3731 83.9352 42.679 83.0787 42.679L13.8202 42.6788C12.9651 42.6788 12.2697 41.9834 12.2697 41.1283C12.2697 40.2732 12.9651 39.5777 13.8202 39.5777ZM14.3557 76.9634C13.9848 76.281 13.7169 75.7879 13.7169 74.6603C13.7169 73.5325 13.9848 73.0395 14.3557 72.357C14.6675 71.7833 15.0317 71.1126 15.2279 70.1238H76.8764C77.7329 70.1238 78.427 69.4297 78.427 68.5732C78.427 67.7167 77.7329 67.0227 76.8764 67.0227H15.2279C15.0317 66.034 14.6675 65.3634 14.3557 64.7896C13.9848 64.1074 13.7169 63.6145 13.7169 62.4872C13.7169 61.3598 13.9848 60.8667 14.3557 60.1843C14.6675 59.6108 15.0317 58.9401 15.2279 57.9515H25.5011C26.3577 57.9515 27.0517 57.2574 27.0517 56.4009C27.0517 55.5444 26.3577 54.8503 25.5011 54.8503H15.2279C15.0317 53.8617 14.6675 53.191 14.3557 52.6173C13.9848 51.9351 13.7169 51.4422 13.7169 50.3148C13.7169 49.1875 13.9848 48.6946 14.3557 48.0124C14.6675 47.4387 15.0317 46.768 15.2279 45.7793L81.5281 45.7802V79.1966H15.2279C15.0317 78.2078 14.6675 77.5371 14.3557 76.9634ZM89.6758 84.5752C89.3979 85.5471 88.2242 86.4324 87.2135 86.4324H12.7865C11.7756 86.4324 10.6021 85.5471 10.3244 84.5752L9.67382 82.2976H90.3266L89.6758 84.5752Z" fill="#E96E15"/>
<path d="M76.8779 54.8506H31.7049C30.8483 54.8506 30.1543 55.5446 30.1543 56.4011C30.1543 57.2577 30.8483 57.9517 31.7049 57.9517H76.8779C77.7344 57.9517 78.4285 57.2577 78.4285 56.4011C78.4285 55.5446 77.7344 54.8506 76.8779 54.8506Z" fill="#E96E15"/>
</svg>
