<svg width="100" height="100" viewBox="0 0 100 100" fill="none" xmlns="http://www.w3.org/2000/svg">
<path d="M41.5495 18.3177C42.3426 18.3177 42.9856 17.6747 42.9856 16.8815C42.9856 16.0883 42.3426 15.4453 41.5495 15.4453C40.7563 15.4453 40.1133 16.0883 40.1133 16.8815C40.1133 17.6747 40.7563 18.3177 41.5495 18.3177Z" fill="#E96E15"/>
<path d="M24.028 27.8792C23.0334 26.8848 21.711 26.3369 20.3045 26.3369C18.898 26.3369 17.5756 26.8846 16.581 27.8792C14.5277 29.9325 14.5277 33.2734 16.581 35.3268C17.5756 36.3212 18.898 36.869 20.3045 36.869C21.711 36.869 23.0334 36.3214 24.028 35.3268C26.0814 33.2734 26.0814 29.9325 24.028 27.8792ZM21.9971 33.2956C21.545 33.7477 20.9439 33.9967 20.3045 33.9967C19.6651 33.9967 19.0641 33.7477 18.612 33.2956C17.6786 32.3623 17.6786 30.8438 18.612 29.9105C19.0641 29.4586 19.6651 29.2094 20.3045 29.2094C20.9439 29.2094 21.545 29.4586 21.9971 29.9105C22.9304 30.8438 22.9304 32.3623 21.9971 33.2956Z" fill="#E96E15"/>
<path d="M7.87234 42.2317C7.87234 23.2859 23.2859 7.87234 42.2317 7.87234C51.7165 7.87234 60.5468 11.6531 67.0962 18.5184C67.6436 19.0925 68.5528 19.1139 69.1267 18.5663C69.7006 18.0188 69.7221 17.1098 69.1746 16.5357C65.7339 12.929 61.6833 10.0921 57.1355 8.10328C52.4265 6.044 47.4122 5 42.2317 5C21.7021 5 5 21.7021 5 42.2317C5 47.4122 6.04419 52.4266 8.10328 57.1355C10.0921 61.6833 12.9292 65.7339 16.5359 69.1746C16.8139 69.44 17.1707 69.5716 17.527 69.5716C17.906 69.5716 18.2842 69.4226 18.5664 69.1267C19.1139 68.5528 19.0925 67.6438 18.5186 67.0962C11.6533 60.5469 7.87234 51.7165 7.87234 42.2317Z" fill="#E96E15"/>
<path d="M49.1393 45.343C49.9325 45.343 50.5755 44.7 50.5755 43.9069C50.5755 43.1137 49.9325 42.4707 49.1393 42.4707C48.3461 42.4707 47.7031 43.1137 47.7031 43.9069C47.7031 44.7 48.3461 45.343 49.1393 45.343Z" fill="#E96E15"/>
<path d="M61.0827 63.4046C61.8758 63.4046 62.5188 62.7616 62.5188 61.9684C62.5188 61.1752 61.8758 60.5322 61.0827 60.5322C60.2895 60.5322 59.6465 61.1752 59.6465 61.9684C59.6465 62.7616 60.2895 63.4046 61.0827 63.4046Z" fill="#E96E15"/>
<path d="M73.5294 43.9073C73.5294 38.892 69.4489 34.8115 64.4336 34.8115C59.4183 34.8115 55.3379 38.892 55.3379 43.9073C55.3379 48.9226 59.4183 53.003 64.4336 53.003C69.4489 53.003 73.5294 48.9226 73.5294 43.9073ZM64.4336 50.1307C61.002 50.1307 58.2102 47.339 58.2102 43.9073C58.2102 40.4756 61.002 37.6839 64.4336 37.6839C67.8653 37.6839 70.657 40.4756 70.657 43.9073C70.657 47.339 67.8653 50.1307 64.4336 50.1307Z" fill="#E96E15"/>
<path d="M47.2344 62.5332C42.2191 62.5332 38.1387 66.6137 38.1387 71.6289C38.1387 76.6442 42.2191 80.7247 47.2344 80.7247C52.2497 80.7247 56.3302 76.6442 56.3302 71.6289C56.3302 66.6137 52.2497 62.5332 47.2344 62.5332ZM47.2344 77.8524C43.8029 77.8524 41.011 75.0606 41.011 71.6289C41.011 68.1973 43.8029 65.4055 47.2344 65.4055C50.6661 65.4055 53.4578 68.1973 53.4578 71.6289C53.4578 75.0606 50.6661 77.8524 47.2344 77.8524Z" fill="#E96E15"/>
<path d="M70.9007 68.1875C67.9972 68.1875 65.6348 70.5499 65.6348 73.4535C65.6348 76.357 67.9972 78.7194 70.9007 78.7194C73.8043 78.7194 76.1667 76.357 76.1667 73.4535C76.1667 70.5499 73.8043 68.1875 70.9007 68.1875ZM70.9007 75.8471C69.5808 75.8471 68.5071 74.7734 68.5071 73.4535C68.5071 72.1335 69.5808 71.0598 70.9007 71.0598C72.2207 71.0598 73.2943 72.1335 73.2943 73.4535C73.2943 74.7734 72.2205 75.8471 70.9007 75.8471Z" fill="#E96E15"/>
<path d="M79.7074 54.5322C76.8038 54.5322 74.4414 56.8946 74.4414 59.7982C74.4414 62.7017 76.8038 65.0641 79.7074 65.0641C82.6109 65.0641 84.9733 62.7017 84.9733 59.7982C84.9733 56.8946 82.6109 54.5322 79.7074 54.5322ZM79.7074 62.1918C78.3874 62.1918 77.3137 61.1181 77.3137 59.7982C77.3137 58.4782 78.3874 57.4046 79.7074 57.4046C81.0273 57.4046 82.101 58.4782 82.101 59.7982C82.101 61.1181 81.0271 62.1918 79.7074 62.1918Z" fill="#E96E15"/>
<path d="M41.0944 49.5169C41.0944 46.6134 38.7322 44.251 35.8285 44.251C32.9247 44.251 30.5625 46.6134 30.5625 49.5169C30.5625 52.4205 32.9247 54.7829 35.8285 54.7829C38.7322 54.7829 41.0944 52.4207 41.0944 49.5169ZM35.8285 51.9105C34.5085 51.9105 33.4348 50.8369 33.4348 49.5169C33.4348 48.197 34.5085 47.1233 35.8285 47.1233C37.1484 47.1233 38.2221 48.197 38.2221 49.5169C38.2221 50.8369 37.1482 51.9105 35.8285 51.9105Z" fill="#E96E15"/>
<path d="M57.7688 20.5371C37.2392 20.5371 20.5371 37.2392 20.5371 57.7688C20.5373 78.2983 37.2392 95.0004 57.7688 95.0004C78.2985 95.0004 95.0006 78.2983 95.0006 57.7686C95.0006 37.239 78.2985 20.5371 57.7688 20.5371ZM57.7688 92.1281C38.823 92.1281 23.4094 76.7145 23.4094 57.7686C23.4094 38.823 38.823 23.4093 57.7688 23.4093C76.7147 23.4095 92.1283 38.823 92.1283 57.7686C92.1283 76.7145 76.7147 92.1281 57.7688 92.1281Z" fill="#E96E15"/>
</svg>
