<svg width="100" height="100" viewBox="0 0 100 100" fill="none" xmlns="http://www.w3.org/2000/svg">
<g clip-path="url(#clip0_59_1612)">
<path d="M97.0026 62.5267C97.114 62.3958 97.2291 62.2666 97.3352 62.1303C97.4697 61.9587 97.5936 61.7782 97.7192 61.5977C97.8183 61.4562 97.9191 61.3182 98.0129 61.1731C98.1315 60.9855 98.2394 60.7891 98.3491 60.5945C98.4323 60.4458 98.5208 60.3007 98.5986 60.1468C98.7012 59.9451 98.7897 59.7363 98.8817 59.5275C98.9507 59.37 99.0268 59.2161 99.0905 59.0551C99.1754 58.8374 99.2462 58.6127 99.3205 58.3897C99.3736 58.2287 99.4338 58.0713 99.4816 57.9067C99.5506 57.666 99.6036 57.4148 99.6585 57.1671C99.6939 57.0113 99.7364 56.8609 99.7664 56.7017C99.8177 56.4257 99.8514 56.1408 99.885 55.8559C99.9009 55.7179 99.9275 55.5852 99.9416 55.4454C99.9805 55.0207 100.002 54.5872 100.002 54.1466C100.002 47.7306 95.0137 42.4152 88.5694 41.5977C87.6865 23.7972 72.5666 11.9561 50.3884 11.9561C27.759 11.9561 12.333 23.7954 11.4324 41.6013C4.98806 42.417 0 47.7342 0 54.1502C0 54.5784 0.0230027 55.003 0.0672388 55.4206C0.0831638 55.5657 0.113244 55.7073 0.132708 55.8506C0.169866 56.1213 0.205255 56.392 0.260108 56.6557C0.295497 56.822 0.345041 56.9813 0.387508 57.1458C0.447669 57.3812 0.502521 57.62 0.575069 57.8501C0.629921 58.0217 0.69893 58.1863 0.76086 58.3561C0.840485 58.5702 0.914801 58.7861 1.00504 58.9949C1.07759 59.1648 1.16429 59.3276 1.24569 59.4921C1.34301 59.6921 1.43679 59.8938 1.54472 60.0866C1.63496 60.2494 1.73759 60.4069 1.83491 60.5662C1.94816 60.752 2.05963 60.9377 2.18349 61.1165C2.29143 61.2739 2.40998 61.4226 2.52499 61.5747C2.65416 61.7464 2.78156 61.918 2.91958 62.0826C3.04344 62.2294 3.17438 62.3692 3.30532 62.5108C3.45041 62.6683 3.59374 62.8257 3.74591 62.9761C3.88392 63.1124 4.02902 63.2398 4.17234 63.3707C4.33159 63.514 4.48907 63.6574 4.6554 63.7919C4.8058 63.9139 4.96151 64.0307 5.11723 64.1457C5.28886 64.2749 5.46227 64.4023 5.64098 64.5226C5.80377 64.6323 5.9701 64.7332 6.13819 64.8358C6.32222 64.9473 6.50624 65.0588 6.69734 65.1632C6.86543 65.257 7.04238 65.3437 7.21932 65.4304C7.41573 65.5259 7.61214 65.6197 7.81386 65.7064C7.99434 65.7842 8.17836 65.855 8.36415 65.9258C8.57118 66.0037 8.77997 66.0797 8.9923 66.147C9.18163 66.2071 9.37273 66.2638 9.5656 66.3151C9.78324 66.3752 10.0009 66.4283 10.2221 66.4779C10.4185 66.5239 10.6167 66.561 10.8148 66.5964C11.0413 66.6353 11.2678 66.669 11.4978 66.6973C11.6995 66.722 11.9013 66.7433 12.1065 66.7574C12.2145 66.7663 12.3206 66.784 12.4286 66.7893L16.362 70.5564C19.3011 73.3734 21.9022 76.5584 24.3121 79.577C28.6083 84.9561 35.0208 88.0421 41.9075 88.0421H58.864C65.7525 88.0421 72.1649 84.9561 76.4594 79.577C78.8693 76.5584 81.4704 73.3734 84.4095 70.5564L88.3518 66.7804C88.4632 66.7734 88.5712 66.7539 88.6827 66.7433C88.8808 66.7256 89.0772 66.7044 89.2719 66.6778C89.4931 66.6477 89.7125 66.6123 89.9283 66.5716C90.1177 66.5363 90.3052 66.4991 90.491 66.4566C90.7051 66.4071 90.9157 66.3505 91.1245 66.2903C91.305 66.239 91.4837 66.1859 91.6589 66.1257C91.8641 66.0567 92.0658 65.9807 92.2675 65.901C92.4374 65.8338 92.6073 65.7648 92.7736 65.6905C92.97 65.602 93.1611 65.5064 93.3504 65.4091C93.5097 65.3277 93.6689 65.2446 93.8247 65.1561C94.0104 65.0499 94.1909 64.9367 94.3696 64.8199C94.5183 64.7243 94.6687 64.6288 94.812 64.5262C94.9872 64.4023 95.1535 64.2714 95.3198 64.1387C95.4578 64.0307 95.5959 63.9228 95.7286 63.8078C95.8914 63.668 96.0453 63.5194 96.1992 63.369C96.3249 63.2486 96.4505 63.1301 96.5708 63.0044C96.723 62.8558 96.8628 62.6913 97.0026 62.5267ZM13.1611 45.0322C14.1396 45.0322 14.9305 44.2413 14.9305 43.2628C14.9305 24.082 32.7382 15.4967 50.3884 15.4967C71.4571 15.4967 85.0712 26.3947 85.0712 43.2628C85.0712 44.2413 85.8622 45.0322 86.8407 45.0322C92.1455 45.0322 96.4629 49.1232 96.4629 54.1502C96.4629 54.7996 96.4027 55.4277 96.2877 56.0311C96.2506 56.2293 96.1709 56.408 96.1214 56.6008C96.0205 56.9937 95.9285 57.3936 95.7817 57.7616C95.6967 57.9739 95.5711 58.158 95.4702 58.3614C95.311 58.6835 95.1677 59.0161 94.9748 59.3116C94.8474 59.5063 94.6846 59.6691 94.543 59.8513C94.3343 60.122 94.1396 60.4069 93.9007 60.6493C93.7291 60.8245 93.5238 60.9607 93.3381 61.12C93.0903 61.3323 92.8568 61.5606 92.586 61.7446C92.3773 61.8862 92.1401 61.9835 91.9172 62.1073C91.6341 62.2648 91.3634 62.44 91.0626 62.5674C90.8219 62.6683 90.5547 62.7213 90.3017 62.801C89.9903 62.9001 89.6895 63.0186 89.3604 63.0841C89.0932 63.1372 88.8047 63.1389 88.5269 63.169C88.1854 63.2062 87.8528 63.2681 87.4971 63.2681C81.7942 63.2239 76.999 60.0035 76.999 56.1921C76.999 55.2136 76.2081 54.4227 75.2296 54.4227C74.2511 54.4227 73.4601 55.2136 73.4601 56.1921C73.4601 60.0283 68.5977 63.2699 62.8435 63.2699C57.0893 63.2699 52.2268 60.0283 52.2268 56.1921C52.2268 55.2136 51.4359 54.4227 50.4574 54.4227C49.4789 54.4227 48.688 55.2136 48.688 56.1921C48.688 60.0283 43.8255 63.2699 38.0713 63.2699C32.3171 63.2699 27.4547 60.0283 27.4547 56.1921C27.4547 55.2136 26.6637 54.4227 25.6852 54.4227C24.7067 54.4227 23.9158 55.2136 23.9158 56.1921C23.9158 60.0283 19.0534 63.2699 13.2991 63.2699C13.2531 63.2699 13.2053 63.2699 13.1629 63.2699C7.85455 63.2699 3.53888 59.1789 3.53888 54.1502C3.53888 49.1214 7.85455 45.0322 13.1611 45.0322ZM73.6955 77.3688C70.0752 81.9039 64.6678 84.5032 58.864 84.5032H41.9075C36.1037 84.5032 30.6963 81.9021 27.076 77.3688C24.5917 74.2563 21.9057 70.9705 18.8092 68.0031L17.1459 66.4089C20.8069 65.6321 23.8715 63.7742 25.6817 61.327C28.0987 64.5934 32.7453 66.8088 38.0678 66.8088C43.3903 66.8088 48.0368 64.5934 50.4539 61.327C52.8709 64.5934 57.5175 66.8088 62.84 66.8088C68.1624 66.8088 72.809 64.5934 75.2261 61.327C77.0185 63.7512 80.0389 65.5931 83.6521 66.3841L81.9641 68.0031C78.8658 70.9687 76.1815 74.2563 73.6955 77.3688Z" fill="#E96E15"/>
<path d="M50.4547 47.3444C54.3581 47.3444 57.5325 43.3756 57.5325 38.4972C57.5325 35.7971 55.6038 22.5723 50.4547 22.5723C45.3056 22.5723 43.377 35.7971 43.377 38.4972C43.377 43.3756 46.5513 47.3444 50.4547 47.3444ZM50.4547 26.1819C51.8756 27.3055 53.9936 34.5691 53.9936 38.4972C53.9936 41.3744 52.3728 43.8056 50.4547 43.8056C48.5366 43.8056 46.9158 41.3744 46.9158 38.4972C46.9158 34.5708 49.0339 27.3055 50.4547 26.1819Z" fill="#E96E15"/>
<path d="M69.929 47.1324C70.8509 47.1324 71.7887 46.9501 72.6911 46.5679C76.2813 45.0409 77.9605 40.8756 76.4317 37.2854C75.4373 34.9498 69.5787 26.7396 65.0701 28.6594C60.5775 30.5704 62.4106 40.4899 63.4068 42.8273C64.5481 45.5151 67.1722 47.1324 69.929 47.1324ZM66.4467 31.9187C66.4874 31.9081 66.5334 31.9028 66.5812 31.9028C67.972 31.9028 72.0647 36.0592 73.1759 38.6709C73.9403 40.4669 73.0998 42.5478 71.3039 43.3122C69.5061 44.0783 67.4252 43.2361 66.6608 41.4401C65.5107 38.7399 65.3851 32.5946 66.4467 31.9187Z" fill="#E96E15"/>
<path d="M28.2205 46.5682C29.1229 46.9522 30.0589 47.1326 30.9826 47.1326C33.7376 47.1326 36.3617 45.5154 37.5065 42.8258C38.5027 40.4884 40.3359 30.5689 35.8433 28.6579C31.3294 26.7363 25.4761 34.9483 24.4817 37.2839C22.9529 40.8759 24.6303 45.0412 28.2205 46.5682ZM27.7357 38.6712C28.8486 36.0559 32.9449 31.896 34.318 31.896C34.364 31.896 34.4082 31.9013 34.4472 31.9119C35.5248 32.5967 35.3991 38.7402 34.2508 41.4421C33.4864 43.2381 31.4037 44.0786 29.6077 43.3142C27.8118 42.548 26.9713 40.4671 27.7357 38.6712Z" fill="#E96E15"/>
<path d="M53.9688 77.399C42.041 77.5689 40.4892 76.9744 35.8603 75.2208C34.9455 74.8793 33.9263 75.3341 33.5777 76.2489C33.2327 77.1637 33.691 78.1846 34.6058 78.5315C39.3249 80.3186 41.4748 80.9662 50.4299 80.9662C51.5181 80.9662 52.7107 80.9556 54.0166 80.9379C54.9951 80.9237 55.7754 80.1204 55.7612 79.1437C55.7488 78.1652 54.9597 77.3919 53.9688 77.399Z" fill="#E96E15"/>
<path d="M29.6017 68.0738C29.0372 67.2757 27.9331 67.0846 27.1351 67.6473C26.3371 68.21 26.1442 69.3141 26.7086 70.1139C27.5827 71.3543 28.5064 72.531 29.4495 73.6157C29.7999 74.0173 30.2918 74.2226 30.7837 74.2226C31.1959 74.2226 31.6118 74.0793 31.9462 73.7873C32.6823 73.145 32.7601 72.0267 32.1178 71.2906C31.2543 70.2962 30.4085 69.2151 29.6017 68.0738Z" fill="#E96E15"/>
</g>
<defs>
<clipPath id="clip0_59_1612">
<rect width="100" height="100" fill="white"/>
</clipPath>
</defs>
</svg>
