<svg width="100" height="100" viewBox="0 0 100 100" fill="none" xmlns="http://www.w3.org/2000/svg">
<path d="M81.2788 58.0474H81.2131C82.6153 56.209 83.8467 53.7413 83.798 50.7735C83.7322 46.762 81.3343 42.8374 76.6709 39.1086C77.2539 37.3578 77.3777 35.6316 77.0355 33.9405C75.6795 27.2408 68.4094 24.565 61.7379 23.0775C61.975 22.2899 62.1039 21.4557 62.1039 20.5918C62.1039 17.3223 60.2788 14.4713 57.5943 13.0029C60.2651 7.58004 63.8263 6.98056 65.2587 6.98056C67.0838 6.98056 68.2313 7.37121 68.8952 7.72351C69.4116 7.99752 70.0376 7.95341 70.5029 7.59972C71.3695 6.94101 71.2578 5.6095 70.2969 5.09824C69.2278 4.52915 67.6032 4 65.2587 4C62.4016 4 59.7219 5.31462 57.5093 7.8016C56.7644 8.63894 55.6878 10.0503 54.7475 12.0445C54.3275 11.9815 53.8977 11.9481 53.4603 11.9481C50.2189 11.9481 47.3899 13.7426 45.9108 16.3896C45.3693 15.7913 44.7712 15.0086 44.3498 14.1228C44.1725 13.7502 43.8486 13.4678 43.4554 13.3428C43.0622 13.2181 42.6345 13.2616 42.2749 13.4635C37.8196 15.9628 34.5666 19.2924 32.606 23.3601C30.9293 26.8388 30.6193 30.0437 30.6136 31.9073C30.4876 31.9562 30.3628 32.0051 30.2462 32.0552C26.3887 33.7084 24.1644 36.8557 23.8131 41.1566C23.6729 42.8758 23.867 44.4445 24.0742 45.5211C21.0045 46.6211 18.8696 48.724 18.0998 51.4798C17.4922 53.6553 17.8057 56.0155 18.8825 58.0476H17.6935C17.2402 58.0476 16.8116 58.2539 16.5287 58.6081C16.2459 58.9624 16.1398 59.426 16.2401 59.8681L23.6258 92.3653C24.1122 94.5054 25.9846 96 28.1793 96H70.7926C72.9871 96 74.8597 94.5054 75.3461 92.3653L82.7317 59.8681C82.8321 59.426 82.726 58.9624 82.4432 58.6081C82.1609 58.2537 81.7323 58.0474 81.2788 58.0474ZM53.4603 14.9287C56.5829 14.9287 59.1234 17.4691 59.1234 20.5918C59.1234 23.7144 56.5829 26.2548 53.4603 26.2548C50.3377 26.2548 47.7973 23.7144 47.7973 20.5918C47.7973 17.4691 50.3379 14.9287 53.4603 14.9287ZM28.1796 93.0192C27.3858 93.0192 26.7086 92.4786 26.5326 91.7046L19.5607 61.028H24.384L29.7119 92.2852C29.7552 92.5396 29.8162 92.784 29.8903 93.0192H28.1796ZM33.5063 93.0192C33.2357 93.0192 32.7876 92.59 32.6503 91.7845L27.4077 61.028H32.2594L35.8021 92.2032C35.8345 92.4873 35.8818 92.7599 35.9428 93.0192H33.5063ZM39.1024 93.0192C38.9987 92.8505 38.8337 92.4826 38.7638 91.8666L35.2593 61.028H40.1301L41.8968 92.1193C41.9148 92.4388 41.9427 92.7387 41.9796 93.0192H39.1024ZM47.996 93.0192H44.9999C44.9488 92.7639 44.8986 92.4114 44.8723 91.9504L43.1154 61.028H47.892C47.8938 61.028 47.8956 61.0284 47.8974 61.0284C47.9 61.0284 47.9024 61.028 47.905 61.028H47.996V93.0192ZM54.1001 91.9504C54.0739 92.4114 54.0236 92.7641 53.9726 93.0192H50.9765V61.028H55.8571L54.1001 91.9504ZM59.8703 93.0192H56.9929C57.03 92.7389 57.0576 92.439 57.0757 92.1193L58.8424 61.028H63.7134L60.2089 91.8666C60.1389 92.4826 59.9742 92.8505 59.8703 93.0192ZM65.4664 93.0192H63.0297C63.0909 92.7599 63.1382 92.4873 63.1706 92.2032L66.7131 61.028H71.5648L66.3222 91.7845C66.1851 92.59 65.737 93.0192 65.4664 93.0192ZM72.4399 91.7046C72.264 92.4788 71.5867 93.0192 70.7928 93.0192H69.082C69.1561 92.784 69.2171 92.5396 69.2604 92.2852L74.5885 61.028H77.7471C77.7483 61.028 77.7494 61.0282 77.7508 61.0282C77.7524 61.0282 77.7538 61.028 77.7554 61.028H79.412L72.4399 91.7046ZM77.1851 58.0474H54.3342C57.685 56.2966 62.0252 53.8432 66.1152 50.9739C66.789 50.5012 66.9519 49.5719 66.4792 48.8981C66.0065 48.2243 65.0771 48.0613 64.4033 48.5341C57.3044 53.5146 49.1761 57.3166 47.5753 58.0474H22.5079C21.0269 56.4484 20.4236 54.241 20.9709 52.2814C21.5904 50.0629 23.5914 48.5094 26.6051 47.9066C29.4359 47.3405 36.9208 45.7645 45.2701 43.3638C46.061 43.1363 46.518 42.3107 46.2905 41.5196C46.063 40.7288 45.2382 40.2714 44.4463 40.4993C37.0041 42.6393 30.2589 44.1151 26.9622 44.7929C26.5066 42.3399 26.2055 37.0295 31.4205 34.7945C33.4332 33.9319 37.512 33.1892 41.8302 32.4029L43.2728 32.1396C44.0823 31.991 44.6182 31.2145 44.4696 30.4049C44.3209 29.5952 43.5444 29.0595 42.7349 29.2081L41.2963 29.4708C38.5079 29.9785 35.8162 30.4689 33.62 31.006C33.8226 27.5333 35.2936 21.4001 42.4686 16.8198C43.0071 17.6241 43.5859 18.2866 44.0459 18.7609C44.367 19.0919 44.6411 19.3512 44.8805 19.5595C44.84 19.8985 44.8167 20.2424 44.8167 20.5922C44.8167 25.3583 48.6942 29.2358 53.4603 29.2358C56.261 29.2358 58.754 27.8957 60.3345 25.8242C63.2737 26.4493 65.7058 27.1724 67.67 28.0171C68.0426 28.5808 67.9915 28.986 67.8884 29.3097C67.5182 30.4695 65.2095 33.6589 51.7992 38.2098C51.0198 38.4743 50.6024 39.3206 50.8668 40.0999C51.0775 40.7206 51.6569 41.1117 52.278 41.1117C52.4368 41.1117 52.5983 41.0861 52.7571 41.0322C57.5637 39.401 61.4631 37.7721 64.3469 36.1906C67.9965 34.1891 70.0839 32.2346 70.7281 30.2158C70.7755 30.0669 70.8135 29.9183 70.8453 29.7695C72.6775 31.1002 73.7374 32.6692 74.1146 34.5322C74.6628 37.2405 73.4316 40.2308 70.4556 43.42C69.8941 44.0217 69.9267 44.9647 70.5286 45.5263C70.8159 45.7943 71.1807 45.9271 71.5449 45.9271C71.9435 45.9271 72.3413 45.7681 72.6348 45.4536C73.748 44.2607 74.6584 43.0733 75.3676 41.8944C78.9363 44.89 80.7703 47.8915 80.8182 50.8227C80.8713 54.0751 78.7237 56.6352 77.1851 58.0474Z" fill="#E96E15"/>
</svg>
