<svg width="100" height="131" viewBox="0 0 100 131" fill="none" xmlns="http://www.w3.org/2000/svg">
<g clip-path="url(#clip0_95_144)">
<path d="M36.262 51.3142C37.2239 51.3142 38.1866 50.9483 38.9203 50.2155C39.2675 49.8692 39.2675 49.3069 38.9203 48.9597C38.573 48.6124 38.0108 48.6124 37.6635 48.9597C36.8908 49.7315 35.6323 49.7315 34.8596 48.9597C34.5123 48.6124 33.9501 48.6124 33.6037 48.9597C33.2564 49.3069 33.2564 49.8683 33.6037 50.2155C34.3365 50.9483 35.2992 51.3142 36.262 51.3142Z" fill="#E96E15"/>
<path d="M40.6104 78.4741C40.4026 78.03 39.875 77.8391 39.4292 78.0469C38.9851 78.2538 38.7933 78.7832 39.0011 79.2273L41.456 84.471C41.607 84.7934 41.9267 84.9826 42.2606 84.9826C42.3868 84.9826 42.5147 84.9559 42.6363 84.8982C43.0804 84.6913 43.2723 84.1619 43.0644 83.7178L40.6104 78.4741Z" fill="#E96E15"/>
<path d="M63.0942 78.0465C62.651 77.8377 62.1207 78.0287 61.9129 78.4737L59.458 83.7174C59.2502 84.1615 59.4411 84.6908 59.8861 84.8978C60.0078 84.9546 60.1357 84.9821 60.2618 84.9821C60.5958 84.9821 60.9155 84.793 61.0665 84.4706L63.5214 79.2268C63.7292 78.7827 63.5382 78.2534 63.0942 78.0465Z" fill="#E96E15"/>
<path d="M55.4925 79.8331C55.0076 79.7612 54.5529 80.0889 54.4774 80.5739L53.6594 85.8176C53.5839 86.3025 53.9161 86.7573 54.4001 86.8328C54.4463 86.8399 54.4925 86.8434 54.5387 86.8434C54.9685 86.8434 55.3469 86.5299 55.4153 86.092L56.2333 80.8483C56.3079 80.3634 55.9766 79.9086 55.4925 79.8331Z" fill="#E96E15"/>
<path d="M47.0344 79.8331C46.5503 79.9086 46.2182 80.3634 46.2937 80.8483L47.1117 86.092C47.18 86.5299 47.5584 86.8434 47.9883 86.8434C48.0336 86.8434 48.0806 86.8399 48.1268 86.8328C48.6109 86.7573 48.943 86.3025 48.8676 85.8176L48.0496 80.5739C47.9732 80.0889 47.5193 79.7612 47.0344 79.8331Z" fill="#E96E15"/>
<path d="M51.2643 59.2757C55.1056 59.2757 58.7648 58.7836 61.845 57.8537C62.3148 57.7125 62.5804 57.2169 62.4383 56.7471C62.2962 56.2781 61.7997 56.0135 61.3307 56.1538C58.4149 57.034 54.9333 57.4994 51.2634 57.4994C50.7731 57.4994 50.3752 57.8964 50.3752 58.3875C50.3752 58.8787 50.774 59.2757 51.2643 59.2757Z" fill="#E96E15"/>
<path d="M34.9618 65.9357C35.85 66.4002 36.8003 66.8185 37.7871 67.1773C37.8874 67.2138 37.9905 67.2315 38.0908 67.2315C38.4532 67.2315 38.7943 67.0077 38.9248 66.648C39.0927 66.1862 38.8555 65.6772 38.3946 65.5094C37.4815 65.1763 36.6032 64.79 35.7843 64.3628C35.35 64.1336 34.8135 64.3041 34.5852 64.7376C34.3588 65.1719 34.5275 65.7083 34.9618 65.9357Z" fill="#E96E15"/>
<path d="M45.6421 68.9869C47.4246 69.2062 49.2293 69.3155 51.0421 69.3155C53.0032 69.3155 54.9749 69.1867 56.943 68.9309C57.4298 68.8687 57.7726 68.4229 57.7095 67.9362C57.6465 67.4495 57.2024 67.1075 56.7139 67.1706C53.0742 67.6431 49.4221 67.6617 45.8588 67.2248C45.3792 67.1644 44.9289 67.5107 44.8685 67.9975C44.809 68.4851 45.1553 68.9274 45.6421 68.9869Z" fill="#E96E15"/>
<path d="M60.9098 67.3109C61.0182 67.7062 61.3752 67.9655 61.766 67.9655C61.8433 67.9655 61.9223 67.9557 62.0005 67.9344C63.9642 67.398 65.7237 66.7239 67.2291 65.9289C67.6625 65.6989 67.8286 65.1625 67.5995 64.7282C67.3712 64.2947 66.833 64.1295 66.3996 64.3569C65.0087 65.0914 63.3709 65.7185 61.5324 66.2203C61.0599 66.3499 60.781 66.8375 60.9098 67.3109Z" fill="#E96E15"/>
<path d="M73.1867 69.2005C73.1867 67.1426 72.0765 65.1682 69.9671 63.4629C70.0284 63.129 70.0595 62.7942 70.0595 62.462C70.0595 59.8481 68.2441 57.4119 64.933 55.5645C64.8549 53.7553 64.3086 47.9343 60.5837 44.5397C58.4823 42.6258 55.7512 41.8193 52.4579 42.1461C52.1532 42.1763 51.8859 42.3611 51.75 42.6355C51.6141 42.9109 51.6292 43.2359 51.7891 43.4962C52.3513 44.411 53.3363 46.618 52.7936 47.5995C52.56 48.0231 51.9685 48.2425 51.0359 48.2514C48.7445 48.2745 46.5072 48.5613 44.4981 49.0614C44.2273 48.6804 43.9288 48.3144 43.5913 47.9769C41.4597 45.8462 38.6478 44.8897 36.0908 45.1597C35.7027 44.4225 35.1316 43.6374 34.286 42.9712C32.5026 41.5653 30.0486 41.0892 26.9933 41.5591C26.5084 41.6337 26.1753 42.0866 26.2499 42.5716C26.3237 43.0574 26.7828 43.3905 27.2625 43.315C29.8008 42.9268 31.7885 43.275 33.1687 44.3523C33.6457 44.7245 33.9992 45.1535 34.2745 45.5816C33.3517 45.9208 32.5008 46.4431 31.7797 47.1643L30.9679 47.976C27.9348 51.0091 28.2998 56.3079 31.7797 59.7877C31.9919 60 32.214 60.1963 32.444 60.3819C32.1704 61.0738 32.031 61.771 32.031 62.4611C32.031 62.7942 32.0621 63.129 32.1225 63.4621C30.014 65.1673 28.9029 67.1417 28.9029 69.1996C28.9029 70.697 29.4855 72.1359 30.6242 73.4814L33.9779 81.7431L34.0205 81.8337C36.8484 87.033 39.2331 88.3573 44.3978 90.337C46.2008 91.028 48.7374 91.3744 51.2713 91.3744C53.8061 91.3744 56.3383 91.028 58.1288 90.3361C63.3023 88.3369 65.6853 87.0162 68.4581 81.9172L72.7666 71.3498L72.7648 71.3481C73.0428 70.642 73.1867 69.9217 73.1867 69.2005ZM32.2237 49.2319L33.0355 48.4201C33.5968 47.8588 34.2674 47.4671 34.9948 47.2131C35.0907 47.5755 35.1227 47.8268 35.1245 47.8428C35.1653 48.3047 35.5526 48.6528 36.0082 48.6528C36.0331 48.6528 36.0579 48.6519 36.0828 48.6493C36.5722 48.6084 36.9346 48.1794 36.8937 47.6901C36.8901 47.6528 36.8617 47.3499 36.7507 46.8952C36.8155 46.8934 36.8777 46.8783 36.9425 46.8783C38.7988 46.8783 40.7821 47.6785 42.3346 49.2319C42.7245 49.6209 43.0513 50.0552 43.3276 50.5153C43.3293 50.518 43.3284 50.5215 43.3302 50.5242C43.896 51.4727 44.1926 52.5172 44.245 53.5635C44.2468 53.6052 44.2504 53.647 44.2512 53.6896C44.261 54.0147 44.2486 54.3397 44.2104 54.6621C44.2059 54.6968 44.1997 54.7314 44.1953 54.7661C44.1065 55.4268 43.9164 56.0743 43.6295 56.6836C43.6127 56.72 43.5958 56.7564 43.578 56.792C43.4341 57.0833 43.268 57.3657 43.0789 57.6366C43.0522 57.6748 43.0229 57.7112 42.9954 57.7494C42.7964 58.0221 42.5797 58.2858 42.3355 58.531C42.0735 58.793 41.791 59.0239 41.497 59.2335C41.4731 59.2504 41.45 59.2699 41.426 59.2859C41.1293 59.4902 40.8194 59.6687 40.4987 59.8197C40.4819 59.8277 40.4659 59.8357 40.449 59.8428C39.4525 60.3029 38.3592 60.5027 37.2738 60.437C37.2481 60.4352 37.2232 60.4352 37.1974 60.4334C36.8528 60.4086 36.5091 60.3544 36.1698 60.2753C36.1379 60.2673 36.1059 60.2593 36.0739 60.2514C35.7338 60.1661 35.3971 60.056 35.0703 59.9138C35.0561 59.9076 35.0419 59.8996 35.0277 59.8934C34.6902 59.7442 34.3607 59.5675 34.0445 59.357C34.0418 59.3552 34.0383 59.3552 34.0365 59.3534C33.6803 59.1154 33.3446 58.8401 33.0355 58.5301C30.2485 55.7439 29.8843 51.5722 32.2237 49.2319ZM33.6466 64.5296C33.9459 64.3085 34.0756 63.9221 33.9707 63.5651C33.8624 63.1974 33.8073 62.8261 33.8073 62.462C33.8073 62.1041 33.8642 61.7381 33.9787 61.3678C34.0436 61.3997 34.1093 61.4255 34.175 61.4548C34.6466 61.6742 35.1378 61.8474 35.644 61.9744C35.7204 61.9939 35.7968 62.0152 35.8741 62.0321C36.0224 62.065 36.1716 62.0907 36.3217 62.1156C36.4105 62.1298 36.4994 62.1431 36.5891 62.1547C36.7383 62.1742 36.8875 62.192 37.0376 62.2026C37.122 62.2089 37.2063 62.2115 37.2907 62.2151C37.4222 62.2213 37.5527 62.2346 37.6859 62.2346C38.1123 62.2346 38.5306 62.1929 38.9445 62.1307C38.98 62.1254 39.0146 62.1209 39.0502 62.1156C39.2438 62.0836 39.4347 62.0454 39.6239 62.0001C39.6417 61.9957 39.6594 61.9913 39.6772 61.9868C40.2856 61.8385 40.8727 61.6245 41.4304 61.3438C41.442 61.3385 41.4526 61.3331 41.4642 61.3278C41.6098 61.2541 41.7511 61.1733 41.8923 61.0907C41.9713 61.0445 42.0504 60.9983 42.1276 60.9494C42.2413 60.8775 42.3532 60.8038 42.4643 60.7265C42.5762 60.6484 42.6854 60.5649 42.7947 60.4814C42.8755 60.4183 42.9581 60.3579 43.0362 60.2913C43.2272 60.1323 43.4128 59.9663 43.5913 59.7877C43.864 59.5151 44.1074 59.2229 44.3365 58.9209C44.3845 58.8578 44.4315 58.7957 44.4768 58.7317C44.92 58.1135 45.2726 57.443 45.5293 56.7342C45.5488 56.68 45.5684 56.6276 45.587 56.5735C45.8242 55.8754 45.9672 55.1435 46.0125 54.3921C46.0169 54.3122 46.0213 54.2332 46.024 54.1532C46.0267 54.0626 46.0373 53.9729 46.0373 53.8814C46.0373 53.1967 45.9459 52.5279 45.7869 51.8795C45.7807 51.8555 45.7753 51.8316 45.7691 51.8067C45.6696 51.415 45.5497 51.0296 45.3943 50.6583C47.1467 50.264 49.0811 50.0472 51.0546 50.0268C52.6764 50.0091 53.7848 49.4815 54.3497 48.4548C55.1259 47.0461 54.5379 45.1215 53.9731 43.8523C56.1384 43.8798 57.9547 44.5486 59.382 45.8462C63.154 49.2772 63.17 56.0281 63.17 56.0956C63.1691 56.4278 63.3539 56.7342 63.6487 56.8879C66.6374 58.4431 68.284 60.4219 68.284 62.4602C68.284 62.8235 68.229 63.1947 68.1206 63.5633C68.0158 63.9204 68.1446 64.3067 68.4448 64.5279C69.7984 65.5297 71.4122 67.1524 71.4122 69.1987C71.4122 69.5229 71.3704 69.8497 71.286 70.1775C71.2683 70.1686 71.2487 70.1668 71.231 70.1588C71.0018 70.0531 70.7647 69.9679 70.5169 69.9101C70.4867 69.903 70.4556 69.8995 70.4254 69.8933C70.1812 69.8426 69.9307 69.8124 69.6705 69.8071C69.65 69.8071 69.6305 69.8035 69.6101 69.8035C69.3463 69.8018 69.0736 69.8293 68.7956 69.8737C68.7415 69.8826 68.6873 69.8906 68.6322 69.9012C68.3587 69.9536 68.0798 70.0256 67.7947 70.1215C67.7423 70.1393 67.6899 70.1606 67.6375 70.1792C67.355 70.2814 67.0682 70.4004 66.7751 70.5443C66.7537 70.5549 66.7333 70.5629 66.7111 70.5736C66.4074 70.7255 66.0983 70.9066 65.7865 71.1029C65.7226 71.1429 65.6595 71.182 65.5965 71.2228C65.2901 71.4227 64.981 71.6438 64.6683 71.8854C64.6079 71.9316 64.5484 71.9813 64.488 72.0293C64.1594 72.2913 63.829 72.5675 63.4942 72.8748C61.1308 71.269 57.8401 72.333 55.379 74.4611C52.9988 72.635 49.6495 72.6368 47.271 74.4629C47.0845 74.3039 46.8926 74.152 46.6981 74.0054C46.6404 73.9619 46.5818 73.9202 46.5232 73.8784C46.3775 73.7728 46.2301 73.6715 46.0809 73.5738C46.0205 73.5338 45.9601 73.4939 45.8997 73.4557C45.6972 73.3287 45.4929 73.207 45.2851 73.0951C45.2833 73.0942 45.2824 73.0933 45.2806 73.0924C45.071 72.9796 44.8579 72.8784 44.6447 72.7833C44.5834 72.7558 44.523 72.7318 44.4617 72.7061C44.301 72.6386 44.1393 72.5764 43.9777 72.5187C43.9155 72.4965 43.8542 72.4743 43.7929 72.4547C43.5771 72.3846 43.3604 72.3206 43.1446 72.2709H43.1437C42.9261 72.2202 42.7085 72.1838 42.4918 72.1554C42.4341 72.1474 42.3763 72.143 42.3177 72.1376C42.1543 72.1208 41.9909 72.111 41.8292 72.1074C41.7919 72.1066 41.7546 72.1003 41.7182 72.1003C41.696 72.1003 41.6738 72.1048 41.6516 72.1048C41.2262 72.1101 40.8096 72.1652 40.4064 72.2744C40.3513 72.2895 40.298 72.3082 40.243 72.325C40.092 72.3721 39.9436 72.4272 39.798 72.4911C39.7429 72.5151 39.6887 72.5373 39.6346 72.564C39.4445 72.6563 39.2571 72.7576 39.0768 72.8793C38.8663 72.6865 38.6567 72.5036 38.448 72.3286C38.3805 72.2726 38.3148 72.2211 38.2481 72.167C38.106 72.0515 37.9648 71.9369 37.8236 71.8303C37.7463 71.7717 37.6691 71.7167 37.5927 71.6607C37.4639 71.5666 37.3351 71.4733 37.2063 71.3854C37.1255 71.3303 37.0447 71.2779 36.9647 71.2255C36.8422 71.1456 36.7205 71.0683 36.5988 70.9946C36.5171 70.9457 36.4354 70.8978 36.3546 70.8516C36.2347 70.7832 36.1157 70.7184 35.9975 70.6571C35.9185 70.6153 35.8386 70.5745 35.7595 70.5363C35.6396 70.4777 35.5215 70.4253 35.4034 70.3737C35.3279 70.3409 35.2524 70.3071 35.1778 70.2769C35.0543 70.2272 34.9326 70.1846 34.811 70.1428C34.7443 70.1197 34.6768 70.094 34.6111 70.0736C34.4708 70.03 34.3331 69.9945 34.1955 69.9608C34.1502 69.9501 34.104 69.935 34.0596 69.9252C33.8775 69.8861 33.699 69.8551 33.5231 69.8346C33.4876 69.8302 33.453 69.8311 33.4174 69.8275C33.2789 69.8142 33.1403 69.8044 33.0053 69.8027C32.9423 69.8035 32.8836 69.808 32.8241 69.8098C32.7158 69.8133 32.6083 69.8169 32.5026 69.8284C32.4378 69.8355 32.3738 69.8462 32.3099 69.8559C32.2122 69.871 32.1154 69.8879 32.0212 69.9092C31.9564 69.9243 31.8933 69.9421 31.8303 69.9599C31.7388 69.9865 31.6473 70.0158 31.5585 70.0487C31.4981 70.0718 31.4377 70.0966 31.3782 70.1224C31.2885 70.1615 31.2006 70.2041 31.1135 70.2503C31.0585 70.2796 31.0034 70.308 30.9492 70.3409C30.9208 70.3578 30.8906 70.3711 30.8622 70.3888C30.7414 69.9954 30.6801 69.5984 30.6801 69.2005C30.6801 67.1542 32.293 65.5315 33.6466 64.5296ZM66.8745 81.1134C64.3735 85.6963 62.416 86.7764 57.4893 88.6806C54.3603 89.8894 48.1902 89.8902 45.0346 88.6797C40.1186 86.7941 38.1611 85.7123 35.6059 81.0299L32.2237 72.6981C32.2237 72.6972 32.2237 72.6963 32.2228 72.6954L31.8809 71.8552C34.0738 70.6171 37.6655 73.9673 38.4062 74.6964L39.0297 75.3093L39.6532 74.6964C41.6187 72.7611 44.9032 74.589 46.6315 76.2907L47.2577 76.9071L47.8812 76.2871C49.7792 74.398 52.87 74.398 54.7698 76.2871L55.3959 76.9097L56.023 76.2871C57.6012 74.716 60.494 73.0418 62.4541 74.3279C62.6122 74.4318 62.7659 74.549 62.9107 74.6929L63.5359 75.3146L64.1621 74.6956C64.1621 74.6956 64.163 74.6956 64.163 74.6947C64.2598 74.5987 64.4063 74.4566 64.5911 74.287C64.6079 74.271 64.6284 74.2532 64.6461 74.2373C64.7207 74.1698 64.7998 74.0987 64.885 74.0232C64.925 73.9886 64.9685 73.9513 65.0103 73.9149C65.0813 73.8536 65.1524 73.7923 65.2297 73.7283C65.2847 73.6822 65.3442 73.6342 65.402 73.5871C65.4721 73.5303 65.5423 73.4734 65.616 73.4148C65.6844 73.3606 65.7554 73.3065 65.8274 73.2532C65.8976 73.1999 65.9677 73.1475 66.0397 73.0942C66.1178 73.0365 66.1986 72.9796 66.2795 72.9237C66.3505 72.8739 66.4225 72.8251 66.4953 72.7762C66.5797 72.7194 66.6649 72.6643 66.752 72.6093C66.8266 72.5622 66.9012 72.5169 66.9767 72.4716C67.0646 72.4183 67.1543 72.3668 67.244 72.3171C67.3213 72.2744 67.3986 72.2336 67.4758 72.1936C67.5655 72.1474 67.6552 72.1012 67.7458 72.0595C67.8266 72.0213 67.9075 71.9875 67.9892 71.9538C68.078 71.9165 68.1668 71.8792 68.2547 71.8463C68.3391 71.8152 68.4235 71.7904 68.5079 71.7646C68.5931 71.738 68.6775 71.7104 68.7628 71.69C68.8542 71.6678 68.944 71.6536 69.0345 71.6385C69.1109 71.6252 69.1873 71.6092 69.2628 71.6012C69.3685 71.5905 69.4706 71.5923 69.5746 71.5932C69.6332 71.5932 69.6927 71.5879 69.7495 71.5923C70.0648 71.6154 70.365 71.7007 70.6439 71.8588L66.8745 81.1134Z" fill="#E96E15"/>
</g>
<path d="M34.0399 30.7057C33.8058 30.7614 33.6042 30.7143 33.4352 30.5642C33.2885 30.4278 33.1852 30.2335 33.1251 29.9814C32.2286 26.2169 31.3995 23.055 30.6377 20.4956C30.1882 20.5265 29.8734 20.5634 29.6933 20.6063C28.9548 20.7821 28.4385 20.9717 28.1443 21.175C28.3845 22.1837 28.8281 23.6864 29.4749 25.6831C30.1337 27.8102 30.5704 29.3241 30.7848 30.2247C30.8277 30.4048 30.8145 30.5888 30.745 30.7766C30.6712 30.9464 30.5533 31.0506 30.3912 31.0893C30.157 31.145 29.8422 30.7822 29.4468 30.0009C28.8669 28.8447 28.0215 26.3338 26.9106 22.4681C26.1539 19.8504 25.4131 17.0195 24.6882 13.9755C24.5372 13.4214 24.3395 12.6311 24.095 11.6044C24.0178 11.2802 24.1322 11.0816 24.4384 11.0087C24.6186 10.9658 24.8094 10.9679 25.011 11.0151C25.2306 11.058 25.3982 11.1227 25.514 11.2093C25.5793 11.8029 25.7041 12.4869 25.8885 13.2614C26.0687 14.0179 26.3235 14.9279 26.6529 15.9915C27.0029 17.2214 27.253 18.1516 27.4031 18.782L27.5189 19.2683C27.5352 19.4167 27.567 19.59 27.6142 19.7881C27.6571 19.9682 27.7308 20.1981 27.8355 20.4777C27.9436 20.452 28.1215 20.4001 28.3694 20.322C28.6173 20.2439 28.863 20.1569 29.1066 20.0608C29.6881 19.8652 30.123 19.7331 30.4112 19.6645C30.038 18.0974 29.6747 16.6518 29.3212 15.3275L28.1927 10.8284L28.0189 10.0989C28.2531 10.0431 28.471 10.0388 28.6725 10.086C28.8698 10.1151 29.0285 10.182 29.1486 10.2867C29.3579 10.4462 29.5384 10.7648 29.6903 11.2426L29.8383 11.864C30.2072 13.413 31.0028 16.3545 32.2253 20.6885C33.3311 24.6125 34.1199 27.5651 34.5918 29.5464C34.6518 29.7986 34.6244 30.043 34.5095 30.2798C34.4126 30.5122 34.2561 30.6542 34.0399 30.7057Z" fill="#E96E15"/>
<path d="M42.7227 29.3756C42.2446 29.4317 41.7849 29.3272 41.3437 29.0621C40.9045 28.8154 40.526 28.4497 40.2081 27.965C39.5431 26.9059 39.0685 25.7219 38.7843 24.413C38.4719 23.182 38.2477 21.9872 38.1117 20.8287C38.0858 20.608 38.0734 20.423 38.0745 20.2738L38.0162 19.7773C38.0054 19.6853 37.9908 19.6404 37.9724 19.6426L37.9141 19.1461L37.7149 17.212C37.6642 16.6213 37.6276 15.6749 37.6052 14.3725C37.5935 13.479 37.7045 12.5991 37.9384 11.7327C38.0239 11.3498 38.157 11.0545 38.3377 10.8469C38.5162 10.6208 38.7342 10.4927 38.9917 10.4625C39.7272 10.3761 40.4054 10.4363 41.0263 10.643C41.645 10.8313 42.1847 11.1408 42.6454 11.5714C43.0671 11.988 43.4467 12.5213 43.7841 13.1715C44.1193 13.8033 44.3863 14.4897 44.5852 15.2307C44.7862 15.9901 44.9375 16.8019 45.039 17.6662L45.0649 17.8869C45.1318 18.4569 45.2015 18.9707 45.2739 19.4283L45.4861 20.9974C46.108 26.2934 45.1869 29.0862 42.7227 29.3756ZM42.4764 28.23C42.8074 28.1911 43.0957 28.0268 43.3413 27.7369C43.5847 27.4287 43.753 27.0361 43.8461 26.5591C44.0854 25.5802 44.1781 24.5439 44.1242 23.4503C44.1061 22.5017 44.057 21.6872 43.9771 21.0068C43.8799 20.1793 43.6882 19.1019 43.4018 17.7746C43.1252 16.3715 42.9458 15.3206 42.8638 14.6219L42.8055 14.1253C42.6866 13.4309 42.3763 12.8521 41.8745 12.389C41.3911 11.9238 40.8368 11.7279 40.2115 11.8013C39.5863 11.8747 39.2146 12.2819 39.0966 13.0229C38.9796 13.6145 38.9741 14.3609 39.0799 15.262C39.1209 15.6113 39.1647 15.9045 39.2111 16.1414L39.2986 16.8862L39.3924 18.1615C39.401 18.552 39.4323 18.9771 39.4863 19.4368C39.6029 20.4298 39.746 21.4104 39.9156 22.3786C40.1511 23.7491 40.4927 25.07 40.9402 26.341C41.3943 27.6673 41.9063 28.2969 42.4764 28.23Z" fill="#E96E15"/>
<path d="M61.6665 29.8557C61.0928 29.8366 60.825 29.2534 60.8631 28.1061L60.9221 26.3296L60.9811 24.5531C61.0118 23.6278 60.9873 22.4135 60.9076 20.9103C60.8154 19.2214 60.7798 18.0624 60.8007 17.4332L60.9134 15.714C60.967 15.2156 61.0042 14.6518 61.0251 14.0226C60.9431 14.2607 60.5954 15.5275 59.9819 17.8228C59.3709 20.0441 58.7469 22.0983 58.1099 23.9853C57.494 25.7989 57.0102 26.6999 56.6586 26.6882C56.3069 26.6765 56.0235 26.5652 55.8082 26.3543C55.612 26.1255 55.5201 25.826 55.5323 25.4559C55.5594 24.6417 55.2837 22.9003 54.7054 20.232C54.1456 17.5642 53.6253 15.3794 53.1446 13.6776L52.8739 16.8087C52.638 19.4501 52.4631 21.6488 52.3492 23.405C52.2556 25.1063 52.1984 26.2715 52.1775 26.9007C52.1726 27.0487 52.1772 27.1878 52.1915 27.318L52.1785 27.7066C52.1681 28.0212 52.0957 28.2503 51.9612 28.3941C51.8261 28.5563 51.5828 28.6316 51.2312 28.6199C51.0461 28.6138 50.8728 28.5339 50.7112 28.3804C50.5489 28.2453 50.4706 28.0945 50.4761 27.9279C50.5388 26.0404 50.7716 23.2137 51.1745 19.4478C51.5774 15.6819 51.8102 12.8552 51.8729 10.9676C51.7674 10.7974 51.7177 10.6198 51.7239 10.4347C51.7313 10.2126 51.8386 10.0495 52.0458 9.9452C52.2722 9.82304 52.5334 9.76687 52.8295 9.7767C53.0701 9.78469 53.4853 10.6692 54.0752 12.4302C54.6652 14.1912 55.2474 16.1835 55.822 18.4072C56.3965 20.6308 56.7601 22.2361 56.9126 23.2231C57.0772 22.7283 57.2128 22.2697 57.3195 21.8471L57.5082 21.1865C58.1864 18.6154 58.8563 16.2941 59.5179 14.2227C59.9119 12.9575 60.2874 11.9696 60.6445 11.2589C61.0034 10.4927 61.3216 10.1143 61.5992 10.1235C61.8583 10.1321 62.0871 10.2138 62.2858 10.3686C62.5035 10.5055 62.6087 10.685 62.6014 10.9071C62.5571 12.2394 62.5463 14.2399 62.5688 16.9083C62.616 19.3923 62.6169 21.3191 62.5714 22.6885L62.4948 24.1587L62.3904 25.628C62.3831 25.8501 62.3998 26.1841 62.4405 26.6301L62.4915 27.6044C62.5045 27.7716 62.5095 27.9014 62.5064 27.9939C62.5218 28.0871 62.5292 28.1429 62.5286 28.1614C62.6132 28.405 62.6536 28.5824 62.6499 28.6934C62.6395 29.008 62.5377 29.2825 62.3447 29.5169C62.1516 29.7514 61.9256 29.8643 61.6665 29.8557Z" fill="#E96E15"/>
<path d="M68.4104 29.7359C68.1732 29.6947 67.9685 29.5747 67.7963 29.3757C67.6424 29.1799 67.5768 28.9618 67.5997 28.7214L67.7231 28.01L67.8181 27.4627C67.8283 27.2953 67.8524 27.1022 67.8904 26.8833C67.9568 26.5002 68.0307 25.9116 68.112 25.1177L68.3611 23.3568C68.5161 22.4629 68.7745 21.1359 69.1361 19.3758C69.4844 17.8013 69.7519 16.4759 69.9386 15.3995C69.9829 15.1441 70.0219 14.7563 70.0558 14.236C70.0928 13.6974 70.1319 13.3096 70.1731 13.0724C70.3977 11.7772 70.8932 11.196 71.6594 11.3289C72.2614 11.4333 72.9341 11.6721 73.6774 12.0453C74.439 12.4217 74.7913 12.7741 74.7343 13.1025C74.7027 13.2849 74.5905 13.444 74.3978 13.5797C74.2266 13.7003 74.0236 13.7873 73.7888 13.8405C73.0701 13.434 72.4085 13.1313 71.8041 12.9325C71.7748 13.2093 71.7159 13.6031 71.6273 14.1139C71.5008 14.8436 71.3777 15.4988 71.2582 16.0794C71.0516 16.9456 70.9103 17.5976 70.8344 18.0355L70.8405 18.4875L71.2831 18.5361C71.4322 18.5432 71.6162 18.5657 71.8352 18.6037C72.7108 18.7556 73.1044 19.0869 73.0158 19.5977C72.981 19.7984 72.8688 19.9575 72.6793 20.0749C72.493 20.1742 72.2721 20.2016 72.0167 20.1573C71.6883 20.1004 71.4361 20.0378 71.26 19.9697L70.5759 19.851C70.5301 20.3317 70.4281 21.0281 70.2699 21.9403C70.1117 22.8524 69.9601 23.6718 69.8153 24.3983C69.5676 25.5017 69.3962 26.327 69.3013 26.8743C69.1241 27.8959 69.0538 28.4099 69.0903 28.4162L69.998 28.5455C70.3113 28.581 70.6869 28.6368 71.1247 28.7127C71.818 28.833 72.1266 29.112 72.0507 29.5498C72.0064 29.8052 71.8546 29.9762 71.5953 30.0628C71.351 30.1708 71.0647 30.1963 70.7364 30.1393L68.4104 29.7359Z" fill="#E96E15"/>
<path d="M36.3955 122.97C35.9907 122.925 35.5656 122.812 35.1201 122.631C34.6909 122.471 34.365 122.304 34.1423 122.13C32.9985 121.2 32.6252 118.969 33.0223 115.436L33.1061 114.691L33.2023 113.836L33.2768 113.173C33.3595 112.437 33.4422 111.785 33.5247 111.217C33.6093 110.63 33.7175 109.999 33.8492 109.325C33.9851 108.614 34.133 108.043 34.2931 107.614C34.4552 107.166 34.6971 106.672 35.0188 106.131C35.2996 105.622 35.613 105.238 35.9588 104.979C36.3231 104.721 36.7743 104.521 37.3122 104.376C37.7949 104.225 38.3767 104.188 39.0575 104.265C39.3335 104.296 39.5378 104.384 39.6706 104.529C39.8033 104.675 39.8583 104.849 39.8355 105.051C39.8148 105.235 39.7318 105.393 39.5865 105.526C39.4595 105.661 39.3122 105.728 39.1445 105.728L37.8474 105.582C37.4794 105.541 37.1315 105.735 36.8038 106.164C36.4761 106.592 36.2157 107.169 36.0225 107.892C35.6303 109.227 35.3865 110.318 35.2914 111.164L35.2759 111.302L34.9228 113.945C34.797 114.732 34.6783 115.623 34.5666 116.616C34.488 117.315 34.4515 117.889 34.457 118.337C34.4746 119.009 34.5689 119.579 34.74 120.045C34.905 120.567 35.2418 120.968 35.7506 121.249C36.0142 121.39 36.3116 121.48 36.6428 121.517C36.8452 121.54 37.0558 121.489 37.2748 121.364C37.514 121.391 37.701 121.468 37.8358 121.595C37.991 121.706 38.0573 121.862 38.0345 122.065C37.9538 122.782 37.4075 123.084 36.3955 122.97Z" fill="#E96E15"/>
<path d="M47.0225 123.223C46.3933 123.202 46.1302 121.665 46.2331 118.612L46.3142 117.03L46.385 115.754L46.3878 115.671L46.3971 115.394C46.4206 115.246 46.4358 115.071 46.4427 114.867C46.4439 114.83 46.4177 114.783 46.3641 114.726C46.3104 114.668 46.2842 114.621 46.2855 114.584L46.2864 114.556C46.1926 114.59 46.0255 114.603 45.7849 114.595C45.5443 114.587 45.2495 114.54 44.9004 114.454C44.79 114.432 44.4955 114.375 44.0168 114.285L43.9092 117.477C43.893 117.958 43.8952 118.718 43.9158 119.756C43.937 120.776 43.9392 121.536 43.9223 122.035C43.913 122.313 43.8309 122.551 43.676 122.749C43.5211 122.948 43.3233 123.043 43.0828 123.035C42.7312 123.023 42.4929 122.672 42.3679 121.983C42.2436 121.275 42.2004 120.356 42.2385 119.227L42.3698 116.981C42.4095 116.352 42.4412 115.686 42.4649 114.983L42.4808 114.511L42.4939 114.123C42.5039 113.827 42.5012 113.632 42.4858 113.539L42.4905 113.4L42.628 111.793C42.6517 111.09 42.6592 110.043 42.6505 108.654C42.6418 107.264 42.6492 106.217 42.6729 105.514C42.6804 105.292 42.761 105.1 42.9147 104.939C43.0683 104.777 43.2562 104.7 43.4782 104.708C44.0704 104.728 44.3478 105.293 44.3103 106.403L44.1388 109.843C44.0669 110.878 44.0094 112.034 43.9663 113.311C44.2408 113.413 44.7389 113.476 45.4606 113.5L46.4876 113.535C46.5283 113.425 46.5506 113.315 46.5543 113.204C46.5843 112.315 46.573 111 46.5206 109.256C46.446 107.624 46.4258 106.298 46.4601 105.28C46.467 105.077 46.5466 104.913 46.699 104.788C46.8706 104.646 47.0674 104.578 47.2894 104.586C47.419 104.59 47.6025 104.643 47.8399 104.743L48.086 104.863C47.9974 107.491 47.9717 111 48.0089 115.392L48.022 122.423C48.0133 122.683 47.9047 122.883 47.6961 123.024C47.5061 123.166 47.2815 123.232 47.0225 123.223Z" fill="#E96E15"/>
<path d="M54.5381 123.507C54.2976 123.518 54.0719 123.445 53.8608 123.288C53.6683 123.13 53.5572 122.931 53.5277 122.692L53.4948 121.97L53.4694 121.415C53.4433 121.25 53.4252 121.056 53.4151 120.834C53.3973 120.446 53.3426 119.855 53.2507 119.062L53.1141 117.289C53.0727 116.383 53.0388 115.031 53.0123 113.235C53.0128 111.622 52.9881 110.27 52.9382 109.179C52.9264 108.92 52.8809 108.533 52.8018 108.017C52.7218 107.484 52.6763 107.096 52.6653 106.856C52.6053 105.543 52.9637 104.868 53.7406 104.833C54.351 104.805 55.0593 104.893 55.8656 105.097C56.6904 105.3 57.1105 105.569 57.1257 105.902C57.1341 106.086 57.0589 106.266 56.9001 106.44C56.7588 106.595 56.5794 106.723 56.3616 106.826C55.5721 106.584 54.8608 106.431 54.2277 106.368C54.2589 106.644 54.2863 107.041 54.31 107.559C54.3438 108.299 54.3649 108.965 54.3735 109.558C54.3585 110.449 54.3612 111.116 54.3815 111.56L54.485 112L54.9277 111.952C55.0748 111.926 55.2593 111.909 55.4813 111.899C56.3691 111.858 56.8248 112.097 56.8485 112.615C56.8578 112.818 56.7826 112.998 56.6229 113.153C56.4623 113.29 56.2526 113.365 55.9936 113.376C55.6607 113.392 55.4009 113.385 55.2143 113.356L54.5206 113.388C54.5796 113.867 54.6302 114.569 54.6725 115.494C54.7147 116.419 54.7435 117.252 54.7588 117.992C54.7548 119.123 54.7655 119.966 54.7909 120.521C54.8382 121.557 54.8804 122.074 54.9174 122.072L55.8317 122.003C56.1453 121.97 56.524 121.943 56.9679 121.923C57.6708 121.891 58.0323 122.097 58.0526 122.541C58.0645 122.8 57.9531 122.999 57.7186 123.14C57.5034 123.298 57.2293 123.384 56.8964 123.4L54.5381 123.507Z" fill="#E96E15"/>
<path d="M63.5164 122.75C63.2405 122.782 62.8934 122.682 62.4752 122.451C62.4457 120.908 62.2939 118.549 62.0197 115.374C61.7307 112.071 61.5662 110.087 61.5264 109.42L61.4497 108.758C61.3147 106.947 61.2067 105.692 61.1259 104.993C61.0961 104.736 61.1738 104.522 61.3591 104.351C61.5628 104.179 61.8026 104.076 62.0785 104.044C62.7222 103.97 63.4183 103.945 64.1668 103.97C64.6535 103.989 65.0444 104.065 65.3395 104.198C65.6529 104.33 65.8235 104.515 65.8512 104.754C65.9108 105.269 65.4715 105.581 64.5335 105.689C64.1628 105.546 63.6739 105.509 63.0669 105.579L62.7359 105.618L62.7742 105.949C62.8572 106.666 62.9258 107.581 62.9799 108.693C63.0072 109.734 63.0687 110.668 63.1645 111.495L63.2507 112.24L63.4714 112.215L63.7473 112.183C64.6485 112.079 65.1268 112.266 65.1822 112.744C65.2098 112.983 65.131 113.188 64.9457 113.358C64.7788 113.527 64.5574 113.627 64.2815 113.659C63.8401 113.71 63.4761 113.705 63.1896 113.645L64.0932 121.453C64.1868 122.262 63.9946 122.695 63.5164 122.75Z" fill="#E96E15"/>
<path fill-rule="evenodd" clip-rule="evenodd" d="M85.9102 34.5712C86.2583 34.2702 86.7845 34.3083 87.0855 34.6563C87.3999 35.0198 87.7091 35.388 88.0131 35.7606C88.3039 36.1172 88.2506 36.6421 87.894 36.9329C87.5374 37.2237 87.0125 37.1704 86.7217 36.8138C86.4279 36.4536 86.1291 36.0978 85.8251 35.7464C85.5241 35.3984 85.5622 34.8722 85.9102 34.5712ZM13.2406 34.5712C13.5887 34.8722 13.6268 35.3984 13.3257 35.7465C13.0218 36.0978 12.7229 36.4536 12.4292 36.8138C12.1384 37.1704 11.6135 37.2237 11.2569 36.9329C10.9003 36.6421 10.847 36.1172 11.1378 35.7606C11.4417 35.388 11.751 35.0198 12.0654 34.6563C12.3664 34.3083 12.8926 34.2702 13.2406 34.5712ZM91.0075 41.3715C91.4024 41.1353 91.9141 41.2639 92.1503 41.6588C92.3969 42.071 92.6376 42.4871 92.8725 42.907C93.0971 43.3086 92.9536 43.8163 92.552 44.0409C92.1504 44.2655 91.6427 44.1221 91.4181 43.7205C91.1912 43.3147 90.9585 42.9126 90.7202 42.5143C90.484 42.1194 90.6126 41.6077 91.0075 41.3715ZM8.14336 41.3715C8.53826 41.6077 8.6669 42.1194 8.43068 42.5143C8.19239 42.9126 7.95973 43.3147 7.7328 43.7205C7.50818 44.1221 7.00051 44.2656 6.59889 44.0409C6.19728 43.8163 6.0538 43.3086 6.27843 42.907C6.51326 42.4871 6.75402 42.0711 7.0006 41.6588C7.23682 41.2639 7.74845 41.1353 8.14336 41.3715ZM94.8464 48.953C95.2764 48.7893 95.7578 49.0052 95.9216 49.4352C96.0924 49.8838 96.2569 50.3355 96.4149 50.7903C96.566 51.2249 96.3361 51.6998 95.9014 51.8508C95.4668 52.0019 94.992 51.772 94.8409 51.3374C94.6882 50.898 94.5293 50.4616 94.3642 50.0282C94.2005 49.5981 94.4164 49.1168 94.8464 48.953ZM4.30449 48.953C4.73453 49.1168 4.95041 49.5981 4.78666 50.0282C4.62163 50.4616 4.46271 50.898 4.31001 51.3374C4.15894 51.772 3.68411 52.0019 3.24945 51.8508C2.81479 51.6998 2.5849 51.2249 2.73598 50.7903C2.89403 50.3355 3.05852 49.8838 3.22933 49.4352C3.39308 49.0052 3.87444 48.7893 4.30449 48.953ZM97.3016 57.0884C97.7536 57.0024 98.1898 57.2991 98.2758 57.7512C98.3655 58.2227 98.4485 58.6965 98.5248 59.1726C98.5976 59.627 98.2882 60.0543 97.8338 60.1271C97.3795 60.1998 96.9521 59.8905 96.8794 59.4361C96.8057 58.9761 96.7255 58.5182 96.6388 58.0626C96.5528 57.6106 96.8495 57.1744 97.3016 57.0884ZM1.84932 57.0884C2.30138 57.1744 2.59812 57.6106 2.51211 58.0627C2.42543 58.5182 2.3452 58.9761 2.27152 59.4361C2.19875 59.8905 1.77142 60.1998 1.31705 60.1271C0.862673 60.0543 0.553321 59.627 0.62609 59.1726C0.702338 58.6965 0.785366 58.2227 0.875071 57.7512C0.961081 57.2991 1.39727 57.0024 1.84932 57.0884ZM98.3007 65.5273C98.7608 65.5208 99.1391 65.8884 99.1457 66.3485C99.1492 66.5894 99.1509 66.8307 99.1509 67.0723C99.1509 67.314 99.1492 67.5553 99.1457 67.7962C99.1391 68.2563 98.7608 68.6239 98.3007 68.6173C97.8406 68.6108 97.4729 68.2324 97.4795 67.7723C97.4828 67.5394 97.4845 67.3061 97.4845 67.0723C97.4845 66.8386 97.4828 66.6053 97.4795 66.3724C97.4729 65.9123 97.8406 65.5339 98.3007 65.5273ZM0.850221 65.5273C1.31034 65.5339 1.678 65.9123 1.67141 66.3724C1.66807 66.6053 1.6664 66.8386 1.6664 67.0723C1.6664 67.3061 1.66807 67.5394 1.67141 67.7723C1.678 68.2324 1.31034 68.6108 0.850221 68.6173C0.390104 68.6239 0.0117654 68.2563 0.00517821 67.7962C0.00172991 67.5553 0 67.314 0 67.0723C0 66.8307 0.00172991 66.5894 0.00517821 66.3485C0.0117653 65.8884 0.390104 65.5208 0.850221 65.5273ZM97.8338 74.0176C98.2882 74.0904 98.5976 74.5177 98.5248 74.9721C98.4485 75.4482 98.3655 75.922 98.2758 76.3935C98.1898 76.8456 97.7536 77.1423 97.3016 77.0563C96.8495 76.9703 96.5528 76.5341 96.6388 76.082C96.7255 75.6265 96.8057 75.1686 96.8794 74.7086C96.9521 74.2542 97.3795 73.9448 97.8338 74.0176ZM1.31705 74.0176C1.77142 73.9448 2.19876 74.2542 2.27152 74.7086C2.3452 75.1686 2.42543 75.6265 2.51211 76.082C2.59812 76.5341 2.30138 76.9703 1.84932 77.0563C1.39727 77.1423 0.961083 76.8456 0.875073 76.3935C0.785367 75.922 0.702339 75.4482 0.626091 74.9721C0.553322 74.5177 0.862673 74.0904 1.31705 74.0176ZM95.9014 82.2938C96.3361 82.4449 96.566 82.9198 96.4149 83.3544C96.2569 83.8092 96.0924 84.2609 95.9216 84.7095C95.7578 85.1395 95.2765 85.3554 94.8464 85.1917C94.4164 85.0279 94.2005 84.5465 94.3642 84.1165C94.5293 83.6831 94.6882 83.2467 94.8409 82.8073C94.992 82.3727 95.4668 82.1428 95.9014 82.2938ZM3.24945 82.2939C3.68411 82.1428 4.15894 82.3727 4.31001 82.8073C4.46271 83.2467 4.62163 83.6831 4.78666 84.1165C4.95041 84.5465 4.73453 85.0279 4.30449 85.1917C3.87444 85.3554 3.39308 85.1395 3.22933 84.7095C3.05852 84.2609 2.89403 83.8092 2.73598 83.3544C2.5849 82.9198 2.81479 82.4449 3.24945 82.2939ZM6.5989 90.1038C7.00051 89.8791 7.50818 90.0226 7.7328 90.4242C7.95973 90.83 8.19239 91.232 8.43068 91.6304C8.6669 92.0253 8.53826 92.5369 8.14336 92.7732C7.74846 93.0094 7.23682 92.8807 7.0006 92.4858C6.75403 92.0736 6.51326 91.6575 6.27843 91.2377C6.0538 90.8361 6.19728 90.3284 6.5989 90.1038ZM92.552 90.1038C92.9536 90.3284 93.0971 90.836 92.8725 91.2377C92.6376 91.6575 92.3969 92.0736 92.1503 92.4858C91.9141 92.8807 91.4024 93.0094 91.0075 92.7732C90.6126 92.5369 90.484 92.0253 90.7202 91.6304C90.9585 91.232 91.1912 90.8299 91.4181 90.4242C91.6427 90.0226 92.1504 89.8791 92.552 90.1038ZM87.894 97.2118C88.2506 97.5026 88.3039 98.0275 88.0131 98.3841C87.7092 98.7567 87.3999 99.1248 87.0855 99.4884C86.7845 99.8364 86.2583 99.8745 85.9103 99.5735C85.5622 99.2724 85.5241 98.7463 85.8251 98.3982C86.1291 98.0469 86.4279 97.691 86.7217 97.3309C87.0125 96.9743 87.5374 96.9209 87.894 97.2118ZM11.2569 97.2118C11.6135 96.921 12.1384 96.9743 12.4292 97.3309C12.7229 97.691 13.0218 98.0469 13.3257 98.3982C13.6268 98.7463 13.5887 99.2724 13.2406 99.5735C12.8926 99.8745 12.3664 99.8364 12.0654 99.4884C11.751 99.1249 11.4417 98.7567 11.1378 98.3841C10.847 98.0275 10.9003 97.5026 11.2569 97.2118ZM82.0766 103.407C82.3776 103.755 82.3395 104.281 81.9915 104.582C81.628 104.897 81.2598 105.206 80.8872 105.51C80.5306 105.801 80.0057 105.747 79.7149 105.391C79.4241 105.034 79.4774 104.509 79.834 104.219C80.1941 103.925 80.55 103.626 80.9013 103.322C81.2494 103.021 81.7756 103.059 82.0766 103.407ZM17.0743 103.407C17.3753 103.059 17.9015 103.021 18.2496 103.322C18.6009 103.626 18.9567 103.925 19.3169 104.219C19.6735 104.509 19.7268 105.034 19.436 105.391C19.1452 105.747 18.6203 105.801 18.2637 105.51C17.8911 105.206 17.5229 104.897 17.1594 104.582C16.8114 104.281 16.7733 103.755 17.0743 103.407Z" fill="#E96E15"/>
<defs>
<clipPath id="clip0_95_144">
<rect width="49.992" height="49.992" fill="white" transform="translate(24.7175 41.3818)"/>
</clipPath>
</defs>
</svg>
