<svg width="26" height="26" viewBox="0 0 26 26" fill="none" xmlns="http://www.w3.org/2000/svg">
<g opacity="0.55">
<path d="M25.6138 5.34854C24.7092 5.74937 23.7375 6.02021 22.7159 6.14262C23.77 5.5119 24.5586 4.51921 24.9345 3.34979C23.9442 3.93803 22.8603 4.35209 21.73 4.57396C20.97 3.76239 19.9632 3.22448 18.8661 3.04372C17.7689 2.86296 16.6428 3.04948 15.6625 3.57431C14.6823 4.09915 13.9027 4.93293 13.4449 5.94622C12.987 6.95951 12.8765 8.0956 13.1305 9.17812C11.1239 9.07737 9.16081 8.5558 7.36875 7.64727C5.5767 6.73874 3.9957 5.46355 2.72837 3.90446C2.29504 4.65196 2.04588 5.51862 2.04588 6.44162C2.04539 7.27254 2.25001 8.09072 2.64158 8.82358C3.03314 9.55645 3.59955 10.1813 4.29054 10.6428C3.48917 10.6173 2.70549 10.4008 2.00471 10.0112V10.0762C2.00463 11.2416 2.40774 12.3711 3.14566 13.2731C3.88357 14.1751 4.91083 14.794 6.05313 15.0249C5.30972 15.2261 4.53032 15.2557 3.77379 15.1115C4.09608 16.1143 4.72387 16.9912 5.56927 17.6194C6.41468 18.2476 7.43537 18.5957 8.48846 18.615C6.70078 20.0184 4.493 20.7796 2.22029 20.7763C1.8177 20.7764 1.41546 20.7529 1.01562 20.7059C3.32256 22.1891 6.00799 22.9763 8.75063 22.9733C18.0348 22.9733 23.1102 15.2838 23.1102 8.61479C23.1102 8.39812 23.1048 8.17929 23.095 7.96262C24.0823 7.24868 24.9344 6.36459 25.6116 5.35179L25.6138 5.34854Z" fill="white"/>
</g>
</svg>
