<svg width="26" height="26" viewBox="0 0 26 26" fill="none" xmlns="http://www.w3.org/2000/svg">
<g opacity="0.55">
<path d="M12.9964 9.3867C11.0072 9.3867 9.38386 11.0101 9.38386 12.9993C9.38386 14.9886 11.0072 16.612 12.9964 16.612C14.9857 16.612 16.609 14.9886 16.609 12.9993C16.609 11.0101 14.9857 9.3867 12.9964 9.3867ZM23.8315 12.9993C23.8315 11.5033 23.845 10.0209 23.761 8.52758C23.677 6.79307 23.2813 5.2537 22.013 3.98534C20.7419 2.71427 19.2053 2.3213 17.4708 2.23729C15.9749 2.15327 14.4924 2.16682 12.9991 2.16682C11.5032 2.16682 10.0207 2.15327 8.52746 2.23729C6.79299 2.3213 5.25364 2.71699 3.98531 3.98534C2.71426 5.25641 2.3213 6.79307 2.23728 8.52758C2.15327 10.0236 2.16682 11.506 2.16682 12.9993C2.16682 14.4927 2.15327 15.9778 2.23728 17.4711C2.3213 19.2056 2.71697 20.745 3.98531 22.0134C5.25635 23.2844 6.79299 23.6774 8.52746 23.7614C10.0234 23.8454 11.5059 23.8319 12.9991 23.8319C14.4951 23.8319 15.9776 23.8454 17.4708 23.7614C19.2053 23.6774 20.7447 23.2817 22.013 22.0134C23.284 20.7423 23.677 19.2056 23.761 17.4711C23.8477 15.9778 23.8315 14.4954 23.8315 12.9993ZM12.9964 18.5579C9.92046 18.5579 7.43799 16.0754 7.43799 12.9993C7.43799 9.92331 9.92046 7.4408 12.9964 7.4408C16.0724 7.4408 18.5549 9.92331 18.5549 12.9993C18.5549 16.0754 16.0724 18.5579 12.9964 18.5579ZM18.7825 8.51132C18.0644 8.51132 17.4844 7.93134 17.4844 7.21315C17.4844 6.49495 18.0644 5.91498 18.7825 5.91498C19.5007 5.91498 20.0807 6.49495 20.0807 7.21315C20.0809 7.38369 20.0475 7.55259 19.9823 7.71019C19.9171 7.86779 19.8215 8.01098 19.7009 8.13157C19.5803 8.25216 19.4372 8.34777 19.2796 8.41294C19.122 8.4781 18.9531 8.51153 18.7825 8.51132Z" fill="white"/>
</g>
</svg>
